<?xml version="1.0" encoding="UTF-8" standalone="no"?><!DOCTYPE svg PUBLIC "-//W3C//DTD SVG 1.1//EN" "http://www.w3.org/Graphics/SVG/1.1/DTD/svg11.dtd"><svg width="100%" height="100%" viewBox="0 0 586 549" version="1.1" xmlns="http://www.w3.org/2000/svg" xmlns:xlink="http://www.w3.org/1999/xlink" xml:space="preserve" style="fill-rule:evenodd;clip-rule:evenodd;stroke-linejoin:round;stroke-miterlimit:1.41421;"><rect id="Artboard1" x="0" y="0" width="585.114" height="548.203"/><path d="M248.409,438.758c1.929,1.088 4.31,0.536 5.312,-1.243c1.002,-1.778 0.245,-4.108 -1.684,-5.197c-1.932,-1.09 -4.313,-0.53 -5.315,1.248c-1.002,1.778 -0.243,4.103 1.687,5.192Zm3.224,-5.723c1.502,0.847 2.088,2.658 1.308,4.043c-0.781,1.384 -2.63,1.816 -4.132,0.969c-1.503,-0.849 -2.092,-2.656 -1.311,-4.041c0.779,-1.383 2.632,-1.82 4.135,-0.971Z" style="fill:#fff;fill-rule:nonzero;"/><path d="M257.119,433.302c1.927,1.087 4.314,0.533 5.316,-1.245c0.999,-1.775 0.24,-4.1 -1.692,-5.189c-1.933,-1.091 -4.314,-0.539 -5.314,1.236c-1.001,1.778 -0.238,4.11 1.69,5.198Zm3.225,-5.725c1.503,0.848 2.084,2.661 1.308,4.038c-0.78,1.383 -2.628,1.822 -4.132,0.974c-1.497,-0.845 -2.092,-2.661 -1.311,-4.045c0.774,-1.376 2.637,-1.812 4.135,-0.967Z" style="fill:#fff;fill-rule:nonzero;"/><path d="M239.696,444.214c1.931,1.09 4.314,0.534 5.311,-1.235c1.002,-1.779 0.247,-4.113 -1.684,-5.203c-1.93,-1.088 -4.319,-0.528 -5.321,1.25c-0.996,1.767 -0.239,4.097 1.694,5.188Zm3.222,-5.719c1.504,0.848 2.093,2.654 1.31,4.044c-0.775,1.376 -2.627,1.811 -4.13,0.962c-1.502,-0.847 -2.089,-2.656 -1.313,-4.033c0.784,-1.393 2.628,-1.823 4.133,-0.973Z" style="fill:#fff;fill-rule:nonzero;"/><path d="M228.508,443.23c12.17,6.152 23.385,11.169 33.572,15.171c1.041,-1.975 2.155,-3.952 3.473,-5.933c8.089,-12.172 9.286,-27.288 -5.009,-35.325c-12.046,-6.775 -28.092,-0.94 -30.17,16.916c-0.42,3.626 -1.03,6.596 -1.866,9.171Zm32.641,-17.083c2.357,1.331 3.28,4.178 2.059,6.346c-1.224,2.172 -4.136,2.855 -6.493,1.525c-2.357,-1.33 -3.282,-4.178 -2.058,-6.35c1.221,-2.168 4.135,-2.851 6.492,-1.521Zm-8.711,5.458c2.358,1.33 3.282,4.179 2.061,6.347c-1.222,2.168 -4.134,2.847 -6.491,1.517c-2.361,-1.333 -3.286,-4.176 -2.064,-6.344c1.221,-2.169 4.133,-2.852 6.494,-1.52Zm-8.713,5.457c2.362,1.332 3.287,4.176 2.06,6.353c-1.222,2.168 -4.13,2.846 -6.492,1.514c-2.357,-1.33 -3.285,-4.173 -2.063,-6.341c1.222,-2.18 4.138,-2.856 6.495,-1.526Z" style="fill:#fff;fill-rule:nonzero;"/><path d="M172.514,424.929c-0.997,1.769 -0.24,4.099 1.687,5.186c1.929,1.089 4.317,0.533 5.314,-1.236c1.002,-1.778 0.247,-4.112 -1.686,-5.203c-1.921,-1.084 -4.313,-0.526 -5.315,1.253Zm6.22,3.509c-0.775,1.376 -2.627,1.811 -4.13,0.963c-1.5,-0.846 -2.089,-2.657 -1.313,-4.034c0.782,-1.389 2.632,-1.82 4.133,-0.973c1.508,0.851 2.092,2.656 1.31,4.044Z" style="fill:#fff;fill-rule:nonzero;"/><path d="M172.675,414.639c-1.003,1.78 -0.244,4.105 1.684,5.192c1.929,1.089 4.31,0.536 5.313,-1.244c1.002,-1.778 0.244,-4.106 -1.685,-5.195c-1.93,-1.084 -4.314,-0.526 -5.312,1.247Zm6.22,3.51c-0.778,1.381 -2.632,1.82 -4.136,0.971c-1.499,-0.846 -2.087,-2.66 -1.307,-4.043c0.779,-1.382 2.63,-1.818 4.132,-0.97c1.501,0.852 2.088,2.663 1.311,4.042Z" style="fill:#fff;fill-rule:nonzero;"/><path d="M150.487,418.293c8.694,6.645 18.788,13.659 30.357,20.889c1.76,-2.043 3.992,-4.103 6.879,-6.342c14.182,-11.016 10.864,-27.782 -1.157,-34.587c-14.268,-8.08 -26.575,0.767 -32.793,13.99c-1.025,2.164 -2.139,4.141 -3.286,6.05Zm29.809,11.027c-1.222,2.168 -4.134,2.846 -6.491,1.516c-2.363,-1.333 -3.284,-4.174 -2.062,-6.343c1.227,-2.177 4.131,-2.857 6.494,-1.524c2.352,1.327 3.286,4.173 2.059,6.351Zm0.155,-10.293c-1.222,2.168 -4.128,2.85 -6.491,1.517c-2.357,-1.331 -3.284,-4.175 -2.062,-6.343c1.22,-2.167 4.135,-2.851 6.492,-1.521c2.362,1.333 3.281,4.18 2.061,6.347Zm-1.905,-16.632c2.357,1.33 3.282,4.179 2.06,6.347c-1.223,2.172 -4.137,2.854 -6.494,1.524c-2.358,-1.33 -3.282,-4.178 -2.059,-6.35c1.222,-2.169 4.136,-2.851 6.493,-1.521Z" style="fill:#fff;fill-rule:nonzero;"/><path d="M174.514,409.551c1.93,1.089 4.318,0.533 5.319,-1.245c0.999,-1.773 0.241,-4.1 -1.693,-5.191c-1.933,-1.091 -4.313,-0.535 -5.312,1.238c-1.002,1.778 -0.247,4.107 1.686,5.198Zm3.226,-5.725c1.497,0.845 2.092,2.664 1.316,4.041c-0.78,1.385 -2.631,1.82 -4.139,0.97c-1.504,-0.849 -2.089,-2.657 -1.308,-4.043c0.778,-1.377 2.627,-1.816 4.131,-0.968Z" style="fill:#fff;fill-rule:nonzero;"/><path d="M117.69,465.866c-0.004,-0.003 -0.004,-0.003 0,0c-0.011,0.035 -0.024,0.067 -0.031,0.102c-0.385,1.184 -0.745,2.366 -1.041,3.534c-0.021,0.07 -0.042,0.141 -0.064,0.212c0.006,0.003 0.01,0.005 0.014,0.008c-3.936,16.014 0.134,30.259 8.798,36.645c0.007,0.021 0,0.044 -0.001,0.068c0.281,0.21 0.61,0.362 0.914,0.555c0.322,0.206 0.626,0.466 0.963,0.656c0.286,0.162 0.58,0.315 0.872,0.463c2.315,1.145 4.899,1.558 7.619,1.47c0.006,-0.001 0.021,-0.005 0.033,-0.003c2.604,-0.089 5.324,-0.705 8.085,-1.806c0.006,-0.001 0.008,-0.005 0.017,-0.007c1.178,-0.466 2.353,-1.022 3.531,-1.658c0.044,-0.027 0.089,-0.041 0.135,-0.061l-0.004,-0.002c1.045,-0.575 2.089,-1.212 3.126,-1.909c0.004,0.003 0.002,0.006 0.005,0.013c0.094,-0.067 0.184,-0.141 0.275,-0.204c0.846,-0.58 1.685,-1.192 2.509,-1.848c0.132,-0.106 0.268,-0.191 0.404,-0.296c-0.002,-0.006 -0.003,-0.018 -0.008,-0.029c1.23,-1.001 2.44,-2.078 3.621,-3.248c-0.001,0.009 -0.004,0.025 -0.001,0.043c0.218,-0.217 0.424,-0.46 0.643,-0.679c0.538,-0.543 1.06,-1.092 1.58,-1.67c0.71,-0.789 1.399,-1.611 2.075,-2.457c0.214,-0.276 0.434,-0.533 0.649,-0.806c0.187,-0.249 0.394,-0.474 0.576,-0.727c0.007,-0.035 0,-0.075 0.007,-0.116c5.629,-7.668 9.779,-17.339 10.682,-28.085c-1.693,-1.032 -3.381,-2.062 -5.066,-3.118c-0.021,0.392 -0.056,0.724 -0.081,1.121c-0.494,8.624 -3.288,16.285 -7.13,22.716c-0.943,-1.451 -2.148,-2.777 -3.793,-3.705c-3.156,-1.782 -4.397,-5.603 -2.76,-8.508c2.646,-4.697 0.639,-10.869 -4.465,-13.754c-3.157,-1.781 -4.394,-5.599 -2.762,-8.506c0.468,-0.83 0.74,-1.709 0.921,-2.602c-1.309,-0.91 -2.597,-1.83 -3.886,-2.753c0.116,1.149 0.02,2.311 -0.571,3.36c-2.646,4.696 -0.642,10.866 4.465,13.753c3.159,1.783 4.399,5.601 2.762,8.506c-2.646,4.697 -0.644,10.874 4.464,13.756c1.695,0.956 2.775,2.495 3.225,4.166c-1.232,1.71 -2.528,3.288 -3.88,4.753c0.431,-3.933 -1.635,-8.078 -5.552,-10.295c-3.158,-1.782 -4.396,-5.595 -2.761,-8.506c2.648,-4.701 0.643,-10.872 -4.465,-13.754c-3.159,-1.782 -4.398,-5.601 -2.761,-8.508c1.838,-3.261 1.388,-7.212 -0.738,-10.298c0.207,-0.23 0.41,-0.483 0.616,-0.721c-1.462,-1.082 -2.916,-2.169 -4.348,-3.263c-0.087,0.098 -0.173,0.208 -0.257,0.305l-0.004,-0.002c-0.818,0.937 -1.641,1.879 -2.466,2.848c0.01,0.005 0.018,0.01 0.028,0.016c-0.637,0.743 -1.27,1.47 -1.912,2.241l-0.004,-0.002c-0.318,0.38 -0.642,0.738 -0.955,1.134c-5.749,7.05 -9.563,14.368 -11.847,21.462Zm19.74,38.374c-0.224,-1.288 -0.151,-2.617 0.515,-3.8c2.648,-4.7 0.646,-10.872 -4.464,-13.755c-3.156,-1.781 -4.398,-5.601 -2.761,-8.506c2.646,-4.697 0.638,-10.867 -4.465,-13.754c-0.69,-0.389 -1.25,-0.91 -1.747,-1.465c0.726,-1.699 1.525,-3.386 2.439,-5.05c0.452,3.129 2.394,6.121 5.521,7.885c3.156,1.781 4.398,5.601 2.761,8.506c-2.646,4.697 -0.638,10.867 4.465,13.754c3.157,1.781 4.393,5.6 2.761,8.508c-1.133,2.01 -1.326,4.279 -0.873,6.448c-1.437,0.574 -2.83,0.992 -4.152,1.229Zm-7.155,-0.614c-0.197,-0.102 -0.392,-0.205 -0.59,-0.317c-0.038,-0.021 -0.076,-0.059 -0.112,-0.085c0.11,-0.298 0.17,-0.613 0.33,-0.897c2.646,-4.697 0.642,-10.874 -4.464,-13.755c-3.156,-1.781 -4.394,-5.599 -2.761,-8.507c1.806,-3.205 1.402,-7.076 -0.627,-10.141c0.289,-1.061 0.67,-2.115 1.03,-3.174c0.427,0.328 0.852,0.654 1.338,0.928c3.159,1.783 4.399,5.601 2.762,8.507c-2.646,4.696 -0.643,10.871 4.465,13.753c3.158,1.782 4.402,5.598 2.762,8.509c-1.058,1.879 -1.325,3.976 -0.996,6.018c-1.139,-0.126 -2.207,-0.384 -3.137,-0.839Zm-9.003,-13.176c-0.035,-0.164 -0.047,-0.347 -0.082,-0.516c0.713,0.708 1.498,1.364 2.418,1.883c3.157,1.781 4.398,5.601 2.761,8.508c-0.029,0.05 -0.023,0.107 -0.052,0.157c-2.282,-2.482 -4.045,-5.869 -5.045,-10.032Zm14.776,-40.295c-2.645,4.694 -0.642,10.874 4.464,13.755c3.158,1.782 4.396,5.595 2.761,8.506c-2.648,4.7 -0.643,10.871 4.465,13.753c3.159,1.783 4.399,5.604 2.763,8.509c-0.665,1.179 -0.958,2.46 -1.062,3.754c-1.358,1.041 -2.705,1.95 -4.063,2.732c0.006,-0.894 0.151,-1.784 0.615,-2.608c2.646,-4.696 0.644,-10.868 -4.464,-13.755c-3.156,-1.781 -4.398,-5.601 -2.761,-8.506c2.646,-4.697 0.645,-10.87 -4.465,-13.754c-3.159,-1.782 -4.4,-5.597 -2.761,-8.508c0.831,-1.474 1.113,-3.093 1.07,-4.703c0.415,-0.538 0.77,-1.092 1.199,-1.623c0.788,-0.964 1.575,-1.836 2.364,-2.751c0.72,1.688 0.791,3.572 -0.125,5.199Z" style="fill:#fff;fill-rule:nonzero;"/><path d="M117.69,465.866c-0.004,-0.003 -0.004,-0.003 0,0c-0.011,0.035 -0.024,0.067 -0.031,0.102c-0.385,1.184 -0.745,2.366 -1.041,3.534c-0.021,0.07 -0.042,0.141 -0.064,0.212c0.006,0.003 0.01,0.005 0.014,0.008c-3.936,16.014 0.134,30.259 8.798,36.645c0.007,0.021 0,0.044 -0.001,0.068c0.281,0.21 0.61,0.362 0.914,0.555c0.322,0.206 0.626,0.466 0.963,0.656c0.286,0.162 0.58,0.315 0.872,0.463c2.315,1.145 4.899,1.558 7.619,1.47c0.006,-0.001 0.021,-0.005 0.033,-0.003c2.604,-0.089 5.324,-0.705 8.085,-1.806c0.006,-0.001 0.008,-0.005 0.017,-0.007c1.178,-0.466 2.353,-1.022 3.531,-1.658c0.044,-0.027 0.089,-0.041 0.135,-0.061l-0.004,-0.002c1.045,-0.575 2.089,-1.212 3.126,-1.909c0.004,0.003 0.002,0.006 0.005,0.013c0.094,-0.067 0.184,-0.141 0.275,-0.204c0.846,-0.58 1.685,-1.192 2.509,-1.848c0.132,-0.106 0.268,-0.191 0.404,-0.296c-0.002,-0.006 -0.003,-0.018 -0.008,-0.029c1.23,-1.001 2.44,-2.078 3.621,-3.248c-0.001,0.009 -0.004,0.025 -0.001,0.043c0.218,-0.217 0.424,-0.46 0.643,-0.679c0.538,-0.543 1.06,-1.092 1.58,-1.67c0.71,-0.789 1.399,-1.611 2.075,-2.457c0.214,-0.276 0.434,-0.533 0.649,-0.806c0.187,-0.249 0.394,-0.474 0.576,-0.727c0.007,-0.035 0,-0.075 0.007,-0.116c5.629,-7.668 9.779,-17.339 10.682,-28.085c-1.693,-1.032 -3.381,-2.062 -5.066,-3.118c-0.021,0.392 -0.056,0.724 -0.081,1.121c-0.494,8.624 -3.288,16.285 -7.13,22.716c-0.943,-1.451 -2.148,-2.777 -3.793,-3.705c-3.156,-1.782 -4.397,-5.603 -2.76,-8.508c2.646,-4.697 0.639,-10.869 -4.465,-13.754c-3.157,-1.781 -4.394,-5.599 -2.762,-8.506c0.468,-0.83 0.74,-1.709 0.921,-2.602c-1.309,-0.91 -2.597,-1.83 -3.886,-2.753c0.116,1.149 0.02,2.311 -0.571,3.36c-2.646,4.696 -0.642,10.866 4.465,13.753c3.159,1.783 4.399,5.601 2.762,8.506c-2.646,4.697 -0.644,10.874 4.464,13.756c1.695,0.956 2.775,2.495 3.225,4.166c-1.232,1.71 -2.528,3.288 -3.88,4.753c0.431,-3.933 -1.635,-8.078 -5.552,-10.295c-3.158,-1.782 -4.396,-5.595 -2.761,-8.506c2.648,-4.701 0.643,-10.872 -4.465,-13.754c-3.159,-1.782 -4.398,-5.601 -2.761,-8.508c1.838,-3.261 1.388,-7.212 -0.738,-10.298c0.207,-0.23 0.41,-0.483 0.616,-0.721c-1.462,-1.082 -2.916,-2.169 -4.348,-3.263c-0.087,0.098 -0.173,0.208 -0.257,0.305l-0.004,-0.002c-0.818,0.937 -1.641,1.879 -2.466,2.848c0.01,0.005 0.018,0.01 0.028,0.016c-0.637,0.743 -1.27,1.47 -1.912,2.241l-0.004,-0.002c-0.318,0.38 -0.642,0.738 -0.955,1.134c-5.749,7.05 -9.563,14.368 -11.847,21.462Zm19.74,38.374c-0.224,-1.288 -0.151,-2.617 0.515,-3.8c2.648,-4.7 0.646,-10.872 -4.464,-13.755c-3.156,-1.781 -4.398,-5.601 -2.761,-8.506c2.646,-4.697 0.638,-10.867 -4.465,-13.754c-0.69,-0.389 -1.25,-0.91 -1.747,-1.465c0.726,-1.699 1.525,-3.386 2.439,-5.05c0.452,3.129 2.394,6.121 5.521,7.885c3.156,1.781 4.398,5.601 2.761,8.506c-2.646,4.697 -0.638,10.867 4.465,13.754c3.157,1.781 4.393,5.6 2.761,8.508c-1.133,2.01 -1.326,4.279 -0.873,6.448c-1.437,0.574 -2.83,0.992 -4.152,1.229Zm-7.155,-0.614c-0.197,-0.102 -0.392,-0.205 -0.59,-0.317c-0.038,-0.021 -0.076,-0.059 -0.112,-0.085c0.11,-0.298 0.17,-0.613 0.33,-0.897c2.646,-4.697 0.642,-10.874 -4.464,-13.755c-3.156,-1.781 -4.394,-5.599 -2.761,-8.507c1.806,-3.205 1.402,-7.076 -0.627,-10.141c0.289,-1.061 0.67,-2.115 1.03,-3.174c0.427,0.328 0.852,0.654 1.338,0.928c3.159,1.783 4.399,5.601 2.762,8.507c-2.646,4.696 -0.643,10.871 4.465,13.753c3.158,1.782 4.402,5.598 2.762,8.509c-1.058,1.879 -1.325,3.976 -0.996,6.018c-1.139,-0.126 -2.207,-0.384 -3.137,-0.839Zm-9.003,-13.176c-0.035,-0.164 -0.047,-0.347 -0.082,-0.516c0.713,0.708 1.498,1.364 2.418,1.883c3.157,1.781 4.398,5.601 2.761,8.508c-0.029,0.05 -0.023,0.107 -0.052,0.157c-2.282,-2.482 -4.045,-5.869 -5.045,-10.032Zm14.776,-40.295c-2.645,4.694 -0.642,10.874 4.464,13.755c3.158,1.782 4.396,5.595 2.761,8.506c-2.648,4.7 -0.643,10.871 4.465,13.753c3.159,1.783 4.399,5.604 2.763,8.509c-0.665,1.179 -0.958,2.46 -1.062,3.754c-1.358,1.041 -2.705,1.95 -4.063,2.732c0.006,-0.894 0.151,-1.784 0.615,-2.608c2.646,-4.696 0.644,-10.868 -4.464,-13.755c-3.156,-1.781 -4.398,-5.601 -2.761,-8.506c2.646,-4.697 0.645,-10.87 -4.465,-13.754c-3.159,-1.782 -4.4,-5.597 -2.761,-8.508c0.831,-1.474 1.113,-3.093 1.07,-4.703c0.415,-0.538 0.77,-1.092 1.199,-1.623c0.788,-0.964 1.575,-1.836 2.364,-2.751c0.72,1.688 0.791,3.572 -0.125,5.199Z" style="fill:#fff;fill-rule:nonzero;"/><path d="M191.727,487.761c-0.059,0.158 -0.083,0.308 -0.138,0.468c-0.689,1.906 -1.252,3.803 -1.708,5.693c-0.048,0.208 -0.141,0.417 -0.187,0.621c0.015,-0.004 0.028,-0.013 0.041,-0.016c-0.35,1.537 -0.622,3.052 -0.82,4.553c-0.006,0.001 -0.022,0.005 -0.028,0.006c-0.022,0.171 -0.021,0.326 -0.04,0.491c-0.122,1 -0.192,1.974 -0.239,2.95c-0.008,0.152 -0.034,0.301 -0.039,0.453c0.006,0.003 0.008,-0.001 0.017,-0.003c-0.049,1.196 -0.047,2.364 0.009,3.501l-0.004,-0.002c0.001,0.05 0.014,0.093 0.02,0.143c0.067,1.354 0.214,2.666 0.431,3.933c0,0.01 0.005,0.025 0.004,0.036c0.51,2.923 1.403,5.558 2.694,7.823c0.017,0.026 0.029,0.062 0.047,0.087c1.313,2.277 2.975,4.199 5.08,5.548c0.281,0.175 0.562,0.346 0.851,0.509c0.165,0.094 0.347,0.145 0.514,0.234c0.406,0.205 0.83,0.393 1.25,0.571c9.922,4.304 24.325,0.503 36.075,-11.199c0.004,0.003 0.006,-0.001 0.012,0.002c0.04,-0.038 0.081,-0.086 0.119,-0.131c0.856,-0.862 1.687,-1.785 2.514,-2.725c0.026,-0.037 0.06,-0.064 0.085,-0.094c4.915,-5.645 9.236,-12.734 12.305,-21.35c0.131,-0.379 0.244,-0.736 0.377,-1.109l-0.004,-0.002c0.356,-1.027 0.667,-2.024 0.998,-3.031c0.01,0.006 0.018,0.01 0.032,0.018c0.399,-1.203 0.779,-2.383 1.15,-3.561l-0.004,-0.002c0.048,-0.157 0.109,-0.316 0.154,-0.471c-1.676,-0.667 -3.355,-1.345 -5.042,-2.038c-0.131,0.403 -0.277,0.818 -0.404,1.218c-3.489,0.003 -6.77,1.65 -8.494,4.709c-1.638,2.907 -5.544,3.822 -8.703,2.04c-5.106,-2.881 -11.419,-1.404 -14.072,3.294c-1.636,2.905 -5.543,3.82 -8.701,2.038c-4.309,-2.432 -9.452,-1.725 -12.555,1.366c0.538,-2.046 1.224,-4.1 2.066,-6.184c1.835,-0.868 4.096,-0.925 6.098,0.204c5.11,2.884 11.424,1.402 14.07,-3.295c1.637,-2.905 5.543,-3.815 8.704,-2.036c5.106,2.881 11.418,1.401 14.07,-3.295c0.608,-1.081 1.585,-1.775 2.66,-2.272c-1.463,-0.624 -2.924,-1.26 -4.402,-1.903c-0.684,0.629 -1.317,1.333 -1.794,2.18c-1.636,2.903 -5.542,3.816 -8.702,2.037c-5.104,-2.879 -11.424,-1.406 -14.072,3.294c-1.636,2.904 -5.539,3.823 -8.702,2.038c-1.867,-1.053 -3.883,-1.506 -5.833,-1.444c3.513,-6.698 8.656,-13.131 15.85,-18.078c0.329,-0.22 0.598,-0.423 0.921,-0.652c-1.771,-0.894 -3.532,-1.804 -5.292,-2.726c-9.331,6.776 -15.704,16.087 -19.221,25.515c0.003,0.024 -0.011,0.033 -0.018,0.046Zm48.276,11.96c-0.866,1.444 -1.784,2.822 -2.736,4.154c-0.509,-0.15 -1.022,-0.239 -1.503,-0.51c-5.106,-2.881 -11.424,-1.407 -14.072,3.294c-1.636,2.905 -5.539,3.822 -8.701,2.037c-5.11,-2.883 -11.423,-1.403 -14.071,3.297c-0.745,1.322 -1.992,2.167 -3.392,2.603c-0.532,-1.267 -0.919,-2.704 -1.208,-4.254c2.311,-0.67 4.359,-2.044 5.583,-4.216c1.636,-2.903 5.542,-3.818 8.703,-2.039c5.106,2.881 11.422,1.405 14.07,-3.295c1.636,-2.906 5.541,-3.822 8.704,-2.037c2.786,1.565 5.909,1.8 8.623,0.966Zm-34.91,22.035c1.677,-2.821 5.5,-3.709 8.62,-1.949c0.648,0.366 1.309,0.656 1.977,0.881c-0.061,0.024 -0.118,0.053 -0.179,0.077c-3.772,1.199 -7.295,1.467 -10.418,0.991Zm19.156,-7.238c-1.637,2.905 -5.541,3.816 -8.702,2.038c-5.104,-2.88 -11.425,-1.4 -14.071,3.297c-0.146,0.26 -0.363,0.446 -0.544,0.674c-0.248,-0.123 -0.534,-0.177 -0.768,-0.309c-0.194,-0.109 -0.386,-0.222 -0.574,-0.341c-0.738,-0.475 -1.403,-1.117 -2.014,-1.845c2.024,-0.75 3.786,-2.089 4.89,-4.048c1.636,-2.905 5.54,-3.824 8.702,-2.039c5.111,2.883 11.424,1.401 14.07,-3.295c1.637,-2.906 5.543,-3.814 8.704,-2.037c0.285,0.16 0.574,0.26 0.859,0.392c-0.793,0.954 -1.588,1.885 -2.432,2.759c-3.354,0.128 -6.458,1.804 -8.12,4.754Zm-26.899,-16.257c1.636,-2.905 5.544,-3.822 8.702,-2.04c5.106,2.882 11.418,1.403 14.07,-3.295c1.637,-2.905 5.546,-3.818 8.704,-2.036c5.106,2.881 11.425,1.399 14.071,-3.297c0.794,-1.409 2.136,-2.323 3.656,-2.718c-0.332,1.019 -0.619,2.007 -0.992,3.042c-0.347,0.983 -0.783,1.904 -1.167,2.859c-0.971,0.727 -1.852,1.573 -2.476,2.681c-1.638,2.907 -5.541,3.824 -8.703,2.04c-5.11,-2.883 -11.426,-1.403 -14.072,3.294c-1.637,2.905 -5.541,3.816 -8.702,2.038c-5.106,-2.881 -11.417,-1.4 -14.071,3.297c-0.578,1.026 -1.486,1.703 -2.497,2.18c-0.06,-1.512 -0.03,-3.081 0.121,-4.727c1.36,-0.791 2.544,-1.877 3.356,-3.318Z" style="fill:#fff;fill-rule:nonzero;"/><path d="M310.59,224.298c2.199,0.264 4.185,-1.161 4.427,-3.188c0.242,-2.026 -1.352,-3.887 -3.551,-4.151c-2.202,-0.264 -4.186,1.167 -4.428,3.194c-0.242,2.026 1.352,3.881 3.552,4.145Zm0.778,-6.523c1.712,0.206 2.949,1.653 2.76,3.231c-0.188,1.578 -1.73,2.687 -3.442,2.482c-1.714,-0.206 -2.951,-1.649 -2.763,-3.227c0.188,-1.576 1.731,-2.691 3.445,-2.486Z" style="fill:#fff;fill-rule:nonzero;"/><path d="M316.535,215.915c2.198,0.264 4.189,-1.165 4.43,-3.191c0.242,-2.023 -1.352,-3.877 -3.554,-4.142c-2.204,-0.264 -4.19,1.16 -4.432,3.183c-0.241,2.027 1.359,3.886 3.556,4.15Zm0.779,-6.525c1.714,0.206 2.946,1.657 2.759,3.226c-0.188,1.577 -1.726,2.692 -3.441,2.487c-1.707,-0.205 -2.953,-1.653 -2.764,-3.231c0.187,-1.568 1.739,-2.687 3.446,-2.482Z" style="fill:#fff;fill-rule:nonzero;"/><path d="M304.641,232.683c2.202,0.264 4.188,-1.165 4.429,-3.181c0.242,-2.027 -1.351,-3.892 -3.553,-4.156c-2.199,-0.264 -4.191,1.171 -4.433,3.197c-0.24,2.014 1.353,3.875 3.557,4.14Zm0.778,-6.518c1.714,0.205 2.952,1.646 2.763,3.23c-0.187,1.568 -1.73,2.681 -3.444,2.475c-1.712,-0.205 -2.949,-1.65 -2.761,-3.22c0.189,-1.586 1.726,-2.692 3.442,-2.485Z" style="fill:#fff;fill-rule:nonzero;"/><path d="M293.933,236.071c13.6,1.006 25.881,1.33 36.825,1.112c0.202,-2.223 0.471,-4.476 0.927,-6.812c2.793,-14.345 -1.909,-28.762 -18.194,-30.691c-13.724,-1.628 -26.298,9.923 -21.358,27.207c1.005,3.509 1.583,6.487 1.8,9.184Zm23.576,-28.31c2.687,0.323 4.633,2.597 4.338,5.068c-0.296,2.476 -2.722,4.225 -5.409,3.903c-2.687,-0.323 -4.635,-2.598 -4.34,-5.073c0.295,-2.471 2.723,-4.22 5.411,-3.898Zm-5.946,8.385c2.687,0.323 4.635,2.598 4.34,5.069c-0.295,2.471 -2.723,4.216 -5.41,3.893c-2.692,-0.323 -4.638,-2.593 -4.343,-5.064c0.295,-2.471 2.721,-4.221 5.413,-3.898Zm-5.949,8.385c2.692,0.323 4.638,2.593 4.342,5.075c-0.295,2.471 -2.72,4.214 -5.412,3.891c-2.687,-0.322 -4.636,-2.591 -4.341,-5.062c0.292,-2.482 2.724,-4.226 5.411,-3.904Z" style="fill:#fff;fill-rule:nonzero;"/><path d="M235.205,240.683c-0.241,2.016 1.353,3.877 3.55,4.141c2.2,0.264 4.191,-1.167 4.431,-3.183c0.242,-2.027 -1.351,-3.892 -3.555,-4.156c-2.19,-0.263 -4.184,1.171 -4.426,3.198Zm7.091,0.851c-0.187,1.568 -1.73,2.681 -3.444,2.475c-1.709,-0.205 -2.949,-1.65 -2.761,-3.22c0.189,-1.582 1.731,-2.691 3.442,-2.486c1.719,0.207 2.952,1.649 2.763,3.231Z" style="fill:#fff;fill-rule:nonzero;"/><path d="M231.401,231.121c-0.242,2.029 1.352,3.883 3.55,4.147c2.199,0.264 4.185,-1.16 4.427,-3.189c0.242,-2.027 -1.352,-3.886 -3.551,-4.15c-2.198,-0.259 -4.185,1.172 -4.426,3.192Zm7.091,0.851c-0.188,1.574 -1.731,2.692 -3.445,2.486c-1.709,-0.205 -2.948,-1.654 -2.76,-3.231c0.188,-1.576 1.731,-2.689 3.442,-2.483c1.714,0.21 2.951,1.656 2.763,3.228Z" style="fill:#fff;fill-rule:nonzero;"/><path d="M212.319,243.018c10.579,2.795 22.594,5.394 36.052,7.625c0.84,-2.562 2.11,-5.322 3.915,-8.498c8.863,-15.618 -0.641,-29.824 -14.353,-31.489c-16.277,-1.98 -24.242,10.916 -24.903,25.513c-0.116,2.392 -0.385,4.645 -0.711,6.849Zm31.758,-1.27c-0.295,2.471 -2.723,4.216 -5.41,3.893c-2.694,-0.323 -4.636,-2.592 -4.341,-5.064c0.296,-2.481 2.717,-4.225 5.411,-3.902c2.681,0.322 4.636,2.591 4.34,5.073Zm-3.811,-9.563c-0.295,2.471 -2.716,4.217 -5.41,3.894c-2.687,-0.323 -4.636,-2.593 -4.341,-5.064c0.295,-2.469 2.724,-4.221 5.411,-3.898c2.692,0.323 4.635,2.599 4.34,5.068Zm-8.147,-14.624c2.687,0.323 4.635,2.597 4.34,5.068c-0.295,2.476 -2.723,4.225 -5.411,3.902c-2.687,-0.322 -4.635,-2.597 -4.339,-5.072c0.294,-2.471 2.723,-4.22 5.41,-3.898Z" style="fill:#fff;fill-rule:nonzero;"/><path d="M231.145,225.717c2.2,0.264 4.191,-1.167 4.433,-3.193c0.241,-2.021 -1.353,-3.877 -3.557,-4.142c-2.204,-0.265 -4.188,1.163 -4.429,3.183c-0.242,2.027 1.349,3.887 3.553,4.152Zm0.779,-6.525c1.707,0.205 2.956,1.656 2.768,3.225c-0.188,1.579 -1.731,2.692 -3.449,2.485c-1.714,-0.205 -2.949,-1.65 -2.761,-3.23c0.19,-1.57 1.728,-2.685 3.442,-2.48Z" style="fill:#fff;fill-rule:nonzero;"/><path d="M200.313,299.538c-0.005,0 -0.005,0 0,0c0.002,0.037 0.003,0.072 0.01,0.107c0.099,1.241 0.221,2.471 0.396,3.663c0.008,0.072 0.015,0.146 0.023,0.22c0.007,0.001 0.011,0.001 0.016,0.002c2.517,16.298 11.747,27.886 22.199,30.454c0.015,0.017 0.016,0.041 0.025,0.064c0.34,0.085 0.703,0.099 1.057,0.161c0.377,0.066 0.757,0.189 1.141,0.235c0.327,0.04 0.657,0.068 0.983,0.093c2.578,0.167 5.122,-0.444 7.599,-1.569c0.006,-0.004 0.018,-0.013 0.03,-0.016c2.37,-1.082 4.644,-2.695 6.771,-4.773c0.005,-0.004 0.005,-0.008 0.013,-0.013c0.908,-0.883 1.779,-1.847 2.622,-2.887c0.031,-0.042 0.067,-0.072 0.102,-0.108l-0.005,-0.001c0.744,-0.932 1.464,-1.921 2.153,-2.962c0.005,0 0.004,0.004 0.011,0.009c0.061,-0.097 0.115,-0.2 0.175,-0.294c0.558,-0.86 1.098,-1.748 1.607,-2.67c0.081,-0.149 0.173,-0.279 0.259,-0.428c-0.004,-0.005 -0.01,-0.016 -0.018,-0.024c0.75,-1.397 1.454,-2.855 2.094,-4.39c0.004,0.009 0.007,0.024 0.016,0.041c0.118,-0.284 0.215,-0.588 0.333,-0.875c0.288,-0.708 0.559,-1.415 0.817,-2.148c0.353,-1.001 0.673,-2.025 0.973,-3.066c0.091,-0.337 0.195,-0.659 0.289,-0.993c0.078,-0.302 0.182,-0.59 0.253,-0.893c-0.007,-0.035 -0.029,-0.07 -0.038,-0.109c2.251,-9.243 2.369,-19.766 -0.926,-30.035c-1.959,-0.301 -3.914,-0.605 -5.875,-0.932c0.131,0.37 0.226,0.69 0.356,1.066c2.857,8.152 3.219,16.299 2.143,23.713c-1.428,-0.979 -3.051,-1.74 -4.926,-1.965c-3.598,-0.432 -6.212,-3.484 -5.816,-6.795c0.638,-5.353 -3.585,-10.28 -9.406,-10.983c-3.598,-0.432 -6.208,-3.481 -5.817,-6.793c0.113,-0.946 0.026,-1.862 -0.149,-2.756c-1.559,-0.337 -3.101,-0.692 -4.645,-1.049c0.548,1.016 0.906,2.126 0.763,3.321c-0.639,5.353 3.581,10.28 9.406,10.983c3.6,0.433 6.212,3.482 5.817,6.793c-0.639,5.353 3.582,10.286 9.405,10.985c1.933,0.232 3.521,1.239 4.578,2.608c-0.481,2.052 -1.071,4.007 -1.757,5.879c-1.113,-3.796 -4.613,-6.83 -9.08,-7.373c-3.601,-0.432 -6.208,-3.477 -5.817,-6.793c0.639,-5.357 -3.582,-10.284 -9.406,-10.983c-3.6,-0.432 -6.212,-3.482 -5.816,-6.795c0.443,-3.717 -1.49,-7.192 -4.638,-9.224c0.103,-0.292 0.193,-0.603 0.292,-0.903c-1.766,-0.437 -3.526,-0.882 -5.268,-1.342c-0.043,0.123 -0.08,0.258 -0.12,0.38l-0.005,0c-0.395,1.18 -0.793,2.366 -1.183,3.576c0.012,0.002 0.021,0.003 0.033,0.004c-0.303,0.932 -0.608,1.846 -0.905,2.804l-0.004,-0.001c-0.148,0.474 -0.309,0.929 -0.447,1.415c-2.599,8.718 -3.31,16.939 -2.693,24.365Zm32.965,27.848c-0.701,-1.103 -1.144,-2.358 -0.983,-3.706c0.639,-5.357 -3.58,-10.286 -9.406,-10.985c-3.598,-0.432 -6.212,-3.482 -5.817,-6.793c0.639,-5.352 -3.585,-10.278 -9.405,-10.983c-0.787,-0.095 -1.504,-0.361 -2.175,-0.682c0.017,-1.848 0.107,-3.712 0.311,-5.6c1.62,2.716 4.562,4.732 8.126,5.16c3.599,0.432 6.212,3.482 5.817,6.793c-0.639,5.353 3.585,10.278 9.406,10.983c3.598,0.432 6.207,3.483 5.816,6.795c-0.273,2.291 0.42,4.46 1.672,6.289c-1.107,1.081 -2.232,2.002 -3.362,2.729Zm-6.841,2.181c-0.222,-0.018 -0.441,-0.038 -0.667,-0.065c-0.044,-0.005 -0.093,-0.026 -0.136,-0.035c-0.013,-0.317 -0.078,-0.632 -0.04,-0.956c0.639,-5.352 -3.584,-10.286 -9.405,-10.985c-3.598,-0.432 -6.208,-3.481 -5.817,-6.793c0.436,-3.654 -1.424,-7.072 -4.475,-9.123c-0.14,-1.09 -0.193,-2.21 -0.268,-3.326c0.52,0.14 1.038,0.277 1.593,0.343c3.601,0.433 6.212,3.482 5.817,6.793c-0.639,5.353 3.582,10.284 9.405,10.983c3.601,0.433 6.215,3.478 5.819,6.795c-0.255,2.141 0.304,4.181 1.392,5.94c-1.1,0.321 -2.185,0.493 -3.218,0.429Zm-13.374,-8.706c-0.096,-0.138 -0.177,-0.302 -0.274,-0.445c0.93,0.38 1.907,0.684 2.956,0.81c3.598,0.432 6.212,3.482 5.817,6.795c-0.007,0.057 0.02,0.107 0.013,0.164c-3.061,-1.414 -5.989,-3.865 -8.512,-7.324Zm-1.836,-42.88c-0.639,5.351 3.584,10.287 9.405,10.986c3.601,0.432 6.208,3.476 5.817,6.792c-0.64,5.357 3.582,10.284 9.405,10.983c3.601,0.433 6.215,3.485 5.819,6.796c-0.16,1.343 0.061,2.638 0.462,3.873c-0.854,1.483 -1.748,2.839 -2.702,4.083c-0.337,-0.828 -0.545,-1.705 -0.433,-2.644c0.639,-5.353 -3.581,-10.282 -9.406,-10.986c-3.598,-0.432 -6.212,-3.481 -5.817,-6.792c0.639,-5.353 -3.58,-10.284 -9.405,-10.984c-3.601,-0.432 -6.213,-3.477 -5.817,-6.794c0.201,-1.68 -0.161,-3.284 -0.819,-4.753c0.177,-0.657 0.291,-1.304 0.484,-1.959c0.357,-1.194 0.748,-2.301 1.126,-3.449c1.312,1.282 2.102,2.995 1.881,4.848Z" style="fill:#fff;fill-rule:nonzero;"/><path d="M200.313,299.538c-0.005,0 -0.005,0 0,0c0.002,0.037 0.003,0.072 0.01,0.107c0.099,1.241 0.221,2.471 0.396,3.663c0.008,0.072 0.015,0.146 0.023,0.22c0.007,0.001 0.011,0.001 0.016,0.002c2.517,16.298 11.747,27.886 22.199,30.454c0.015,0.017 0.016,0.041 0.025,0.064c0.34,0.085 0.703,0.099 1.057,0.161c0.377,0.066 0.757,0.189 1.141,0.235c0.327,0.04 0.657,0.068 0.983,0.093c2.578,0.167 5.122,-0.444 7.599,-1.569c0.006,-0.004 0.018,-0.013 0.03,-0.016c2.37,-1.082 4.644,-2.695 6.771,-4.773c0.005,-0.004 0.005,-0.008 0.013,-0.013c0.908,-0.883 1.779,-1.847 2.622,-2.887c0.031,-0.042 0.067,-0.072 0.102,-0.108l-0.005,-0.001c0.744,-0.932 1.464,-1.921 2.153,-2.962c0.005,0 0.004,0.004 0.011,0.009c0.061,-0.097 0.115,-0.2 0.175,-0.294c0.558,-0.86 1.098,-1.748 1.607,-2.67c0.081,-0.149 0.173,-0.279 0.259,-0.428c-0.004,-0.005 -0.01,-0.016 -0.018,-0.024c0.75,-1.397 1.454,-2.855 2.094,-4.39c0.004,0.009 0.007,0.024 0.016,0.041c0.118,-0.284 0.215,-0.588 0.333,-0.875c0.288,-0.708 0.559,-1.415 0.817,-2.148c0.353,-1.001 0.673,-2.025 0.973,-3.066c0.091,-0.337 0.195,-0.659 0.289,-0.993c0.078,-0.302 0.182,-0.59 0.253,-0.893c-0.007,-0.035 -0.029,-0.07 -0.038,-0.109c2.251,-9.243 2.369,-19.766 -0.926,-30.035c-1.959,-0.301 -3.914,-0.605 -5.875,-0.932c0.131,0.37 0.226,0.69 0.356,1.066c2.857,8.152 3.219,16.299 2.143,23.713c-1.428,-0.979 -3.051,-1.74 -4.926,-1.965c-3.598,-0.432 -6.212,-3.484 -5.816,-6.795c0.638,-5.353 -3.585,-10.28 -9.406,-10.983c-3.598,-0.432 -6.208,-3.481 -5.817,-6.793c0.113,-0.946 0.026,-1.862 -0.149,-2.756c-1.559,-0.337 -3.101,-0.692 -4.645,-1.049c0.548,1.016 0.906,2.126 0.763,3.321c-0.639,5.353 3.581,10.28 9.406,10.983c3.6,0.433 6.212,3.482 5.817,6.793c-0.639,5.353 3.582,10.286 9.405,10.985c1.933,0.232 3.521,1.239 4.578,2.608c-0.481,2.052 -1.071,4.007 -1.757,5.879c-1.113,-3.796 -4.613,-6.83 -9.08,-7.373c-3.601,-0.432 -6.208,-3.477 -5.817,-6.793c0.639,-5.357 -3.582,-10.284 -9.406,-10.983c-3.6,-0.432 -6.212,-3.482 -5.816,-6.795c0.443,-3.717 -1.49,-7.192 -4.638,-9.224c0.103,-0.292 0.193,-0.603 0.292,-0.903c-1.766,-0.437 -3.526,-0.882 -5.268,-1.342c-0.043,0.123 -0.08,0.258 -0.12,0.38l-0.005,0c-0.395,1.18 -0.793,2.366 -1.183,3.576c0.012,0.002 0.021,0.003 0.033,0.004c-0.303,0.932 -0.608,1.846 -0.905,2.804l-0.004,-0.001c-0.148,0.474 -0.309,0.929 -0.447,1.415c-2.599,8.718 -3.31,16.939 -2.693,24.365Zm32.965,27.848c-0.701,-1.103 -1.144,-2.358 -0.983,-3.706c0.639,-5.357 -3.58,-10.286 -9.406,-10.985c-3.598,-0.432 -6.212,-3.482 -5.817,-6.793c0.639,-5.352 -3.585,-10.278 -9.405,-10.983c-0.787,-0.095 -1.504,-0.361 -2.175,-0.682c0.017,-1.848 0.107,-3.712 0.311,-5.6c1.62,2.716 4.562,4.732 8.126,5.16c3.599,0.432 6.212,3.482 5.817,6.793c-0.639,5.353 3.585,10.278 9.406,10.983c3.598,0.432 6.207,3.483 5.816,6.795c-0.273,2.291 0.42,4.46 1.672,6.289c-1.107,1.081 -2.232,2.002 -3.362,2.729Zm-6.841,2.181c-0.222,-0.018 -0.441,-0.038 -0.667,-0.065c-0.044,-0.005 -0.093,-0.026 -0.136,-0.035c-0.013,-0.317 -0.078,-0.632 -0.04,-0.956c0.639,-5.352 -3.584,-10.286 -9.405,-10.985c-3.598,-0.432 -6.208,-3.481 -5.817,-6.793c0.436,-3.654 -1.424,-7.072 -4.475,-9.123c-0.14,-1.09 -0.193,-2.21 -0.268,-3.326c0.52,0.14 1.038,0.277 1.593,0.343c3.601,0.433 6.212,3.482 5.817,6.793c-0.639,5.353 3.582,10.284 9.405,10.983c3.601,0.433 6.215,3.478 5.819,6.795c-0.255,2.141 0.304,4.181 1.392,5.94c-1.1,0.321 -2.185,0.493 -3.218,0.429Zm-13.374,-8.706c-0.096,-0.138 -0.177,-0.302 -0.274,-0.445c0.93,0.38 1.907,0.684 2.956,0.81c3.598,0.432 6.212,3.482 5.817,6.795c-0.007,0.057 0.02,0.107 0.013,0.164c-3.061,-1.414 -5.989,-3.865 -8.512,-7.324Zm-1.836,-42.88c-0.639,5.351 3.584,10.287 9.405,10.986c3.601,0.432 6.208,3.476 5.817,6.792c-0.64,5.357 3.582,10.284 9.405,10.983c3.601,0.433 6.215,3.485 5.819,6.796c-0.16,1.343 0.061,2.638 0.462,3.873c-0.854,1.483 -1.748,2.839 -2.702,4.083c-0.337,-0.828 -0.545,-1.705 -0.433,-2.644c0.639,-5.353 -3.581,-10.282 -9.406,-10.986c-3.598,-0.432 -6.212,-3.481 -5.817,-6.792c0.639,-5.353 -3.58,-10.284 -9.405,-10.984c-3.601,-0.432 -6.213,-3.477 -5.817,-6.794c0.201,-1.68 -0.161,-3.284 -0.819,-4.753c0.177,-0.657 0.291,-1.304 0.484,-1.959c0.357,-1.194 0.748,-2.301 1.126,-3.449c1.312,1.282 2.102,2.995 1.881,4.848Z" style="fill:#fff;fill-rule:nonzero;"/><path d="M277.08,291.315c0.006,0.168 0.042,0.316 0.052,0.485c0.097,2.024 0.305,3.992 0.61,5.912c0.036,0.211 0.03,0.439 0.066,0.646c0.012,-0.01 0.021,-0.024 0.031,-0.031c0.268,1.554 0.599,3.057 0.992,4.518c-0.005,0.004 -0.018,0.013 -0.023,0.017c0.045,0.166 0.105,0.309 0.152,0.469c0.271,0.97 0.581,1.896 0.912,2.815c0.051,0.144 0.084,0.291 0.138,0.433c0.006,0.001 0.007,-0.003 0.015,-0.009c0.414,1.123 0.864,2.2 1.353,3.229l-0.005,0c0.02,0.045 0.049,0.081 0.074,0.124c0.582,1.225 1.221,2.379 1.908,3.465c0.004,0.009 0.014,0.021 0.018,0.033c1.594,2.502 3.431,4.592 5.492,6.187c0.026,0.018 0.051,0.047 0.077,0.063c2.087,1.598 4.36,2.733 6.821,3.17c0.327,0.055 0.653,0.104 0.982,0.144c0.188,0.023 0.375,0 0.564,0.018c0.454,0.033 0.917,0.044 1.374,0.047c10.814,0.163 22.652,-8.88 29.005,-24.197c0.005,0.001 0.005,-0.003 0.012,-0.002c0.023,-0.051 0.041,-0.111 0.06,-0.167c0.458,-1.125 0.871,-2.297 1.274,-3.482c0.01,-0.044 0.031,-0.082 0.043,-0.12c2.369,-7.1 3.635,-15.304 3.159,-24.438c-0.024,-0.4 -0.057,-0.773 -0.077,-1.168l-0.005,-0.001c-0.066,-1.085 -0.162,-2.125 -0.243,-3.182c0.011,0.002 0.021,0.003 0.037,0.005c-0.094,-1.265 -0.197,-2.5 -0.307,-3.73l-0.004,-0.001c-0.016,-0.162 -0.021,-0.333 -0.039,-0.494c-1.803,0.029 -3.614,0.047 -5.438,0.056c0.034,0.422 0.059,0.861 0.095,1.279c-3.22,1.344 -5.617,4.125 -6.033,7.611c-0.396,3.313 -3.651,5.659 -7.252,5.226c-5.821,-0.698 -11.083,3.091 -11.727,8.447c-0.395,3.311 -3.651,5.656 -7.251,5.224c-4.913,-0.59 -9.39,2.038 -11.067,6.084c-0.289,-2.095 -0.445,-4.255 -0.468,-6.503c1.361,-1.506 3.426,-2.428 5.709,-2.154c5.825,0.699 11.086,-3.094 11.724,-8.447c0.396,-3.311 3.653,-5.651 7.254,-5.223c5.821,0.698 11.081,-3.093 11.725,-8.447c0.147,-1.232 0.782,-2.248 1.583,-3.119c-1.589,-0.015 -3.183,-0.041 -4.794,-0.067c-0.39,0.844 -0.705,1.737 -0.82,2.702c-0.395,3.309 -3.65,5.652 -7.251,5.224c-5.819,-0.698 -11.088,3.09 -11.728,8.447c-0.394,3.308 -3.646,5.656 -7.251,5.224c-2.128,-0.256 -4.164,0.101 -5.94,0.907c0.67,-7.534 2.948,-15.449 7.69,-22.779c0.219,-0.33 0.389,-0.621 0.599,-0.956c-1.978,-0.145 -3.954,-0.31 -5.933,-0.485c-6.012,9.841 -8.32,20.886 -7.945,30.942c0.011,0.02 0.003,0.034 0.001,0.049Zm49.167,-7.502c-0.246,1.666 -0.564,3.291 -0.931,4.886c-0.528,0.057 -1.036,0.172 -1.584,0.107c-5.821,-0.699 -11.087,3.089 -11.727,8.446c-0.395,3.311 -3.646,5.657 -7.251,5.224c-5.826,-0.699 -11.086,3.092 -11.725,8.449c-0.18,1.506 -1.007,2.766 -2.132,3.706c-0.977,-0.965 -1.887,-2.143 -2.749,-3.463c1.876,-1.507 3.24,-3.562 3.535,-6.038c0.395,-3.308 3.651,-5.654 7.252,-5.226c5.821,0.699 11.085,-3.09 11.725,-8.447c0.395,-3.311 3.648,-5.656 7.253,-5.223c3.174,0.374 6.148,-0.608 8.334,-2.421Zm-23.768,33.755c0.464,-3.249 3.653,-5.538 7.21,-5.111c0.738,0.089 1.46,0.102 2.164,0.054c-0.048,0.046 -0.089,0.094 -0.136,0.14c-3.022,2.556 -6.172,4.156 -9.238,4.917Zm14.906,-14.041c-0.396,3.311 -3.65,5.652 -7.252,5.224c-5.818,-0.699 -11.086,3.096 -11.725,8.449c-0.035,0.296 -0.164,0.551 -0.244,0.831c-0.275,-0.018 -0.56,0.042 -0.827,0.01c-0.221,-0.026 -0.441,-0.057 -0.661,-0.094c-0.863,-0.155 -1.724,-0.493 -2.568,-0.931c1.58,-1.469 2.693,-3.383 2.96,-5.615c0.395,-3.311 3.646,-5.659 7.251,-5.226c5.826,0.699 11.086,-3.094 11.725,-8.447c0.395,-3.311 3.652,-5.649 7.254,-5.223c0.324,0.038 0.63,0.019 0.944,0.031c-0.366,1.186 -0.743,2.351 -1.186,3.482c-3.048,1.407 -5.27,4.147 -5.671,7.509Zm-31.081,-4.677c0.396,-3.311 3.651,-5.659 7.252,-5.227c5.821,0.699 11.081,-3.09 11.725,-8.446c0.395,-3.311 3.653,-5.656 7.254,-5.224c5.821,0.698 11.086,-3.097 11.725,-8.449c0.191,-1.606 1.079,-2.965 2.331,-3.913c0.085,1.068 0.199,2.09 0.252,3.189c0.058,1.041 0.009,2.059 0.021,3.088c-0.617,1.044 -1.105,2.163 -1.256,3.427c-0.395,3.313 -3.646,5.658 -7.252,5.226c-5.825,-0.7 -11.088,3.094 -11.727,8.446c-0.395,3.311 -3.65,5.652 -7.251,5.224c-5.821,-0.698 -11.079,3.093 -11.725,8.449c-0.14,1.17 -0.718,2.144 -1.468,2.972c-0.637,-1.372 -1.212,-2.832 -1.705,-4.411c0.953,-1.252 1.628,-2.71 1.824,-4.351Z" style="fill:#fff;fill-rule:nonzero;"/><path d="M161.668,32.064c1.966,-1.021 2.804,-3.317 1.862,-5.128c-0.943,-1.811 -3.308,-2.45 -5.273,-1.429c-1.968,1.023 -2.801,3.323 -1.859,5.134c0.942,1.81 3.304,2.444 5.27,1.423Zm-3.032,-5.827c1.53,-0.795 3.367,-0.297 4.101,1.113c0.734,1.41 0.085,3.195 -1.445,3.99c-1.532,0.796 -3.367,0.301 -4.101,-1.109c-0.733,-1.408 -0.087,-3.198 1.445,-3.994Z" style="fill:#fff;fill-rule:nonzero;"/><path d="M161.857,21.788c1.964,-1.02 2.803,-3.322 1.861,-5.133c-0.94,-1.807 -3.302,-2.44 -5.27,-1.418c-1.97,1.023 -2.808,3.319 -1.867,5.126c0.942,1.811 3.312,2.445 5.276,1.425Zm-3.033,-5.829c1.532,-0.796 3.367,-0.292 4.096,1.111c0.733,1.408 0.091,3.196 -1.441,3.992c-1.526,0.793 -3.371,0.299 -4.105,-1.111c-0.728,-1.401 -0.076,-3.199 1.45,-3.992Z" style="fill:#fff;fill-rule:nonzero;"/><path d="M161.479,42.343c1.968,-1.023 2.803,-3.322 1.866,-5.124c-0.942,-1.81 -3.309,-2.454 -5.277,-1.431c-1.966,1.021 -2.803,3.329 -1.86,5.139c0.936,1.8 3.301,2.439 5.271,1.416Zm-3.03,-5.824c1.532,-0.796 3.366,-0.303 4.102,1.113c0.729,1.4 0.082,3.189 -1.45,3.985c-1.53,0.795 -3.366,0.298 -4.096,-1.104c-0.737,-1.418 -0.09,-3.197 1.444,-3.994Z" style="fill:#fff;fill-rule:nonzero;"/><path d="M154.542,51.176c11.802,-6.833 22.131,-13.485 31.048,-19.832c-1.085,-1.95 -2.133,-3.963 -3.072,-6.15c-5.776,-13.424 -17.783,-22.685 -32.324,-15.102c-12.256,6.388 -16.135,23.015 -2.314,34.511c2.807,2.333 4.962,4.466 6.662,6.573Zm3.524,-36.672c2.402,-1.248 5.291,-0.465 6.44,1.742c1.15,2.212 0.132,5.024 -2.27,6.272c-2.401,1.247 -5.292,0.466 -6.443,-1.745c-1.149,-2.208 -0.128,-5.022 2.273,-6.269Zm-0.187,10.277c2.402,-1.247 5.293,-0.466 6.441,1.742c1.149,2.207 0.127,5.017 -2.275,6.265c-2.406,1.25 -5.293,0.471 -6.442,-1.737c-1.148,-2.207 -0.13,-5.02 2.276,-6.27Zm-0.19,10.279c2.406,-1.25 5.293,-0.471 6.447,1.746c1.149,2.208 0.127,5.014 -2.279,6.264c-2.401,1.248 -5.289,0.472 -6.438,-1.735c-1.158,-2.215 -0.131,-5.027 2.27,-6.275Z" style="fill:#fff;fill-rule:nonzero;"/><path d="M108.623,88.077c0.937,1.802 3.302,2.441 5.266,1.421c1.966,-1.021 2.805,-3.325 1.868,-5.126c-0.943,-1.811 -3.31,-2.454 -5.28,-1.431c-1.957,1.017 -2.796,3.326 -1.854,5.136Zm6.338,-3.292c0.729,1.401 0.082,3.189 -1.45,3.985c-1.528,0.794 -3.366,0.299 -4.096,-1.104c-0.736,-1.414 -0.087,-3.199 1.443,-3.993c1.536,-0.798 3.367,-0.302 4.103,1.112Z" style="fill:#fff;fill-rule:nonzero;"/><path d="M100.093,82.321c0.943,1.813 3.305,2.447 5.269,1.427c1.966,-1.022 2.803,-3.318 1.86,-5.13c-0.942,-1.811 -3.306,-2.448 -5.272,-1.427c-1.962,1.024 -2.796,3.325 -1.857,5.13Zm6.337,-3.292c0.732,1.406 0.087,3.199 -1.445,3.995c-1.528,0.793 -3.368,0.294 -4.101,-1.114c-0.732,-1.408 -0.085,-3.197 1.445,-3.992c1.534,-0.792 3.371,-0.293 4.101,1.111Z" style="fill:#fff;fill-rule:nonzero;"/><path d="M91.032,102.901c10.315,-3.651 21.705,-8.274 34.08,-14.014c-0.749,-2.59 -1.255,-5.585 -1.554,-9.226c-1.478,-17.898 -17.334,-24.278 -29.601,-17.927c-14.563,7.536 -13.875,22.678 -6.197,35.11c1.252,2.041 2.3,4.054 3.272,6.057Zm25.52,-18.943c1.149,2.208 0.127,5.017 -2.275,6.265c-2.408,1.251 -5.291,0.47 -6.439,-1.738c-1.154,-2.217 -0.137,-5.021 2.271,-6.272c2.396,-1.245 5.29,-0.472 6.443,1.745Zm-8.536,-5.753c1.149,2.208 0.133,5.014 -2.275,6.265c-2.402,1.248 -5.291,0.47 -6.44,-1.737c-1.148,-2.206 -0.128,-5.021 2.273,-6.269c2.406,-1.25 5.294,-0.464 6.442,1.741Zm-14.971,-7.49c2.402,-1.248 5.293,-0.467 6.441,1.741c1.151,2.212 0.131,5.025 -2.271,6.273c-2.402,1.247 -5.293,0.466 -6.443,-1.746c-1.149,-2.207 -0.129,-5.021 2.273,-6.268Z" style="fill:#fff;fill-rule:nonzero;"/><path d="M96.836,78.001c1.966,-1.021 2.805,-3.325 1.863,-5.136c-0.939,-1.805 -3.302,-2.44 -5.272,-1.417c-1.97,1.023 -2.805,3.32 -1.866,5.125c0.942,1.811 3.305,2.451 5.275,1.428Zm-3.033,-5.829c1.526,-0.793 3.374,-0.298 4.104,1.105c0.734,1.41 0.087,3.198 -1.449,3.996c-1.532,0.796 -3.366,0.299 -4.101,-1.113c-0.728,-1.404 -0.086,-3.192 1.446,-3.988Z" style="fill:#fff;fill-rule:nonzero;"/><path d="M112.961,156.361c-0.004,0.002 -0.004,0.002 0,0c0.023,0.029 0.043,0.057 0.069,0.082c0.781,0.97 1.574,1.916 2.391,2.803c0.047,0.055 0.094,0.112 0.142,0.169c0.006,-0.004 0.011,-0.006 0.015,-0.008c11.262,12.046 25.418,16.419 35.5,12.651c0.021,0.006 0.036,0.025 0.056,0.038c0.329,-0.12 0.636,-0.314 0.964,-0.462c0.349,-0.157 0.732,-0.27 1.075,-0.448c0.292,-0.152 0.581,-0.314 0.864,-0.478c2.224,-1.314 3.982,-3.252 5.395,-5.578c0.002,-0.006 0.007,-0.021 0.015,-0.03c1.348,-2.229 2.318,-4.844 2.904,-7.758c0.002,-0.006 0,-0.01 0.004,-0.019c0.253,-1.24 0.429,-2.528 0.539,-3.862c0.002,-0.052 0.015,-0.097 0.023,-0.147l-0.004,0.002c0.089,-1.189 0.127,-2.411 0.109,-3.66c0.005,-0.002 0.007,0.001 0.015,0.002c-0.005,-0.115 -0.018,-0.231 -0.022,-0.342c-0.023,-1.025 -0.078,-2.063 -0.176,-3.111c-0.018,-0.169 -0.015,-0.329 -0.028,-0.5c-0.006,-0.001 -0.017,-0.007 -0.028,-0.009c-0.168,-1.577 -0.408,-3.178 -0.744,-4.807c0.009,0.005 0.02,0.016 0.037,0.024c-0.063,-0.301 -0.154,-0.607 -0.218,-0.91c-0.161,-0.746 -0.336,-1.484 -0.536,-2.235c-0.272,-1.025 -0.584,-2.052 -0.924,-3.081c-0.114,-0.329 -0.21,-0.654 -0.321,-0.983c-0.105,-0.293 -0.181,-0.59 -0.293,-0.88c-0.026,-0.025 -0.063,-0.042 -0.094,-0.069c-3.348,-8.905 -9.18,-17.664 -17.688,-24.291c-1.789,0.855 -3.574,1.706 -5.379,2.54c0.317,0.232 0.575,0.443 0.895,0.681c6.953,5.125 11.843,11.651 15.131,18.382c-1.731,-0.004 -3.5,0.281 -5.176,1.152c-3.216,1.671 -7.095,0.622 -8.634,-2.336c-2.488,-4.782 -8.754,-6.473 -13.959,-3.774c-3.216,1.671 -7.09,0.622 -8.633,-2.334c-0.44,-0.844 -1.027,-1.552 -1.676,-2.192c-1.478,0.599 -2.952,1.175 -4.429,1.75c1.026,0.531 1.947,1.246 2.502,2.314c2.489,4.782 8.751,6.475 13.959,3.774c3.218,-1.672 7.094,-0.624 8.633,2.334c2.489,4.782 8.756,6.479 13.96,3.776c1.728,-0.898 3.607,-0.962 5.252,-0.426c0.759,1.966 1.372,3.914 1.861,5.847c-3.058,-2.51 -7.66,-3.044 -11.656,-0.975c-3.218,1.672 -7.088,0.626 -8.633,-2.334c-2.49,-4.785 -8.754,-6.477 -13.959,-3.774c-3.218,1.672 -7.094,0.624 -8.634,-2.335c-1.728,-3.321 -5.283,-5.103 -9.029,-5.008c-0.08,-0.299 -0.18,-0.607 -0.267,-0.91c-1.706,0.634 -3.411,1.258 -5.109,1.859c0.034,0.126 0.08,0.259 0.115,0.382l-0.004,0.002c0.338,1.198 0.678,2.402 1.038,3.622c0.01,-0.005 0.019,-0.01 0.029,-0.015c0.275,0.94 0.538,1.867 0.833,2.825l-0.004,0.003c0.145,0.474 0.267,0.941 0.428,1.42c2.764,8.667 6.81,15.859 11.504,21.647Zm42.925,4.431c-1.201,-0.517 -2.274,-1.304 -2.9,-2.508c-2.491,-4.786 -8.754,-6.48 -13.96,-3.776c-3.217,1.671 -7.094,0.624 -8.634,-2.334c-2.488,-4.782 -8.753,-6.47 -13.959,-3.773c-0.703,0.365 -1.446,0.549 -2.181,0.662c-1.027,-1.536 -2.003,-3.127 -2.898,-4.802c2.868,1.331 6.436,1.339 9.621,-0.316c3.216,-1.67 7.094,-0.624 8.633,2.334c2.488,4.782 8.753,6.471 13.959,3.774c3.216,-1.671 7.091,-0.62 8.634,2.336c1.065,2.047 2.86,3.448 4.925,4.253c-0.305,1.518 -0.716,2.912 -1.24,4.15Zm-4.423,5.656c-0.193,0.111 -0.386,0.218 -0.587,0.322c-0.039,0.021 -0.091,0.031 -0.132,0.047c-0.19,-0.254 -0.421,-0.477 -0.572,-0.766c-2.488,-4.782 -8.757,-6.479 -13.96,-3.776c-3.216,1.671 -7.09,0.622 -8.633,-2.334c-1.698,-3.264 -5.162,-5.04 -8.837,-5.016c-0.73,-0.821 -1.405,-1.716 -2.096,-2.596c0.509,-0.178 1.014,-0.357 1.509,-0.614c3.219,-1.672 7.094,-0.624 8.634,2.334c2.488,4.782 8.754,6.478 13.959,3.774c3.218,-1.672 7.094,-0.629 8.636,2.335c0.995,1.912 2.606,3.282 4.496,4.123c-0.728,0.884 -1.527,1.638 -2.417,2.167Zm-15.954,0.344c-0.157,-0.061 -0.316,-0.151 -0.477,-0.214c0.983,-0.21 1.961,-0.509 2.898,-0.996c3.216,-1.671 7.094,-0.624 8.634,2.336c0.027,0.051 0.077,0.077 0.104,0.128c-3.326,0.556 -7.126,0.182 -11.159,-1.254Zm-25.679,-34.39c2.487,4.78 8.758,6.478 13.96,3.776c3.218,-1.672 7.088,-0.626 8.633,2.334c2.491,4.785 8.755,6.477 13.959,3.773c3.219,-1.671 7.097,-0.623 8.637,2.335c0.624,1.2 1.536,2.146 2.563,2.94c0.131,1.706 0.156,3.331 0.069,4.896c-0.745,-0.494 -1.411,-1.101 -1.848,-1.941c-2.488,-4.781 -8.751,-6.476 -13.96,-3.775c-3.216,1.671 -7.094,0.624 -8.633,-2.334c-2.488,-4.782 -8.752,-6.479 -13.959,-3.774c-3.218,1.672 -7.092,0.628 -8.634,-2.336c-0.781,-1.501 -1.984,-2.622 -3.355,-3.465c-0.224,-0.642 -0.494,-1.241 -0.704,-1.891c-0.378,-1.187 -0.679,-2.322 -1.014,-3.483c1.807,0.319 3.425,1.289 4.286,2.945Z" style="fill:#fff;fill-rule:nonzero;"/><path d="M112.961,156.361c-0.004,0.002 -0.004,0.002 0,0c0.023,0.029 0.043,0.057 0.069,0.082c0.781,0.97 1.574,1.916 2.391,2.803c0.047,0.055 0.094,0.112 0.142,0.169c0.006,-0.004 0.011,-0.006 0.015,-0.008c11.262,12.046 25.418,16.419 35.5,12.651c0.021,0.006 0.036,0.025 0.056,0.038c0.329,-0.12 0.636,-0.314 0.964,-0.462c0.349,-0.157 0.732,-0.27 1.075,-0.448c0.292,-0.152 0.581,-0.314 0.864,-0.478c2.224,-1.314 3.982,-3.252 5.395,-5.578c0.002,-0.006 0.007,-0.021 0.015,-0.03c1.348,-2.229 2.318,-4.844 2.904,-7.758c0.002,-0.006 0,-0.01 0.004,-0.019c0.253,-1.24 0.429,-2.528 0.539,-3.862c0.002,-0.052 0.015,-0.097 0.023,-0.147l-0.004,0.002c0.089,-1.189 0.127,-2.411 0.109,-3.66c0.005,-0.002 0.007,0.001 0.015,0.002c-0.005,-0.115 -0.018,-0.231 -0.022,-0.342c-0.023,-1.025 -0.078,-2.063 -0.176,-3.111c-0.018,-0.169 -0.015,-0.329 -0.028,-0.5c-0.006,-0.001 -0.017,-0.007 -0.028,-0.009c-0.168,-1.577 -0.408,-3.178 -0.744,-4.807c0.009,0.005 0.02,0.016 0.037,0.024c-0.063,-0.301 -0.154,-0.607 -0.218,-0.91c-0.161,-0.746 -0.336,-1.484 -0.536,-2.235c-0.272,-1.025 -0.584,-2.052 -0.924,-3.081c-0.114,-0.329 -0.21,-0.654 -0.321,-0.983c-0.105,-0.293 -0.181,-0.59 -0.293,-0.88c-0.026,-0.025 -0.063,-0.042 -0.094,-0.069c-3.348,-8.905 -9.18,-17.664 -17.688,-24.291c-1.789,0.855 -3.574,1.706 -5.379,2.54c0.317,0.232 0.575,0.443 0.895,0.681c6.953,5.125 11.843,11.651 15.131,18.382c-1.731,-0.004 -3.5,0.281 -5.176,1.152c-3.216,1.671 -7.095,0.622 -8.634,-2.336c-2.488,-4.782 -8.754,-6.473 -13.959,-3.774c-3.216,1.671 -7.09,0.622 -8.633,-2.334c-0.44,-0.844 -1.027,-1.552 -1.676,-2.192c-1.478,0.599 -2.952,1.175 -4.429,1.75c1.026,0.531 1.947,1.246 2.502,2.314c2.489,4.782 8.751,6.475 13.959,3.774c3.218,-1.672 7.094,-0.624 8.633,2.334c2.489,4.782 8.756,6.479 13.96,3.776c1.728,-0.898 3.607,-0.962 5.252,-0.426c0.759,1.966 1.372,3.914 1.861,5.847c-3.058,-2.51 -7.66,-3.044 -11.656,-0.975c-3.218,1.672 -7.088,0.626 -8.633,-2.334c-2.49,-4.785 -8.754,-6.477 -13.959,-3.774c-3.218,1.672 -7.094,0.624 -8.634,-2.335c-1.728,-3.321 -5.283,-5.103 -9.029,-5.008c-0.08,-0.299 -0.18,-0.607 -0.267,-0.91c-1.706,0.634 -3.411,1.258 -5.109,1.859c0.034,0.126 0.08,0.259 0.115,0.382l-0.004,0.002c0.338,1.198 0.678,2.402 1.038,3.622c0.01,-0.005 0.019,-0.01 0.029,-0.015c0.275,0.94 0.538,1.867 0.833,2.825l-0.004,0.003c0.145,0.474 0.267,0.941 0.428,1.42c2.764,8.667 6.81,15.859 11.504,21.647Zm42.925,4.431c-1.201,-0.517 -2.274,-1.304 -2.9,-2.508c-2.491,-4.786 -8.754,-6.48 -13.96,-3.776c-3.217,1.671 -7.094,0.624 -8.634,-2.334c-2.488,-4.782 -8.753,-6.47 -13.959,-3.773c-0.703,0.365 -1.446,0.549 -2.181,0.662c-1.027,-1.536 -2.003,-3.127 -2.898,-4.802c2.868,1.331 6.436,1.339 9.621,-0.316c3.216,-1.67 7.094,-0.624 8.633,2.334c2.488,4.782 8.753,6.471 13.959,3.774c3.216,-1.671 7.091,-0.62 8.634,2.336c1.065,2.047 2.86,3.448 4.925,4.253c-0.305,1.518 -0.716,2.912 -1.24,4.15Zm-4.423,5.656c-0.193,0.111 -0.386,0.218 -0.587,0.322c-0.039,0.021 -0.091,0.031 -0.132,0.047c-0.19,-0.254 -0.421,-0.477 -0.572,-0.766c-2.488,-4.782 -8.757,-6.479 -13.96,-3.776c-3.216,1.671 -7.09,0.622 -8.633,-2.334c-1.698,-3.264 -5.162,-5.04 -8.837,-5.016c-0.73,-0.821 -1.405,-1.716 -2.096,-2.596c0.509,-0.178 1.014,-0.357 1.509,-0.614c3.219,-1.672 7.094,-0.624 8.634,2.334c2.488,4.782 8.754,6.478 13.959,3.774c3.218,-1.672 7.094,-0.629 8.636,2.335c0.995,1.912 2.606,3.282 4.496,4.123c-0.728,0.884 -1.527,1.638 -2.417,2.167Zm-15.954,0.344c-0.157,-0.061 -0.316,-0.151 -0.477,-0.214c0.983,-0.21 1.961,-0.509 2.898,-0.996c3.216,-1.671 7.094,-0.624 8.634,2.336c0.027,0.051 0.077,0.077 0.104,0.128c-3.326,0.556 -7.126,0.182 -11.159,-1.254Zm-25.679,-34.39c2.487,4.78 8.758,6.478 13.96,3.776c3.218,-1.672 7.088,-0.626 8.633,2.334c2.491,4.785 8.755,6.477 13.959,3.773c3.219,-1.671 7.097,-0.623 8.637,2.335c0.624,1.2 1.536,2.146 2.563,2.94c0.131,1.706 0.156,3.331 0.069,4.896c-0.745,-0.494 -1.411,-1.101 -1.848,-1.941c-2.488,-4.781 -8.751,-6.476 -13.96,-3.775c-3.216,1.671 -7.094,0.624 -8.633,-2.334c-2.488,-4.782 -8.752,-6.479 -13.959,-3.774c-3.218,1.672 -7.092,0.628 -8.634,-2.336c-0.781,-1.501 -1.984,-2.622 -3.355,-3.465c-0.224,-0.642 -0.494,-1.241 -0.704,-1.891c-0.378,-1.187 -0.679,-2.322 -1.014,-3.483c1.807,0.319 3.425,1.289 4.286,2.945Z" style="fill:#fff;fill-rule:nonzero;"/><path d="M171.747,106.311c0.1,0.136 0.213,0.238 0.316,0.371c1.221,1.618 2.502,3.126 3.836,4.541c0.148,0.153 0.272,0.346 0.418,0.496c0.005,-0.015 0.004,-0.031 0.009,-0.043c1.096,1.133 2.217,2.188 3.365,3.174c-0.002,0.006 -0.008,0.02 -0.01,0.026c0.131,0.112 0.261,0.196 0.39,0.302c0.771,0.649 1.548,1.239 2.34,1.812c0.123,0.09 0.234,0.193 0.357,0.28c0.006,-0.003 0.005,-0.007 0.008,-0.016c0.975,0.694 1.954,1.331 2.937,1.905l-0.004,0.003c0.042,0.026 0.086,0.039 0.131,0.061c1.171,0.684 2.349,1.277 3.529,1.787c0.008,0.006 0.024,0.01 0.033,0.017c2.727,1.169 5.422,1.861 8.024,2.017c0.031,0 0.068,0.01 0.098,0.009c2.625,0.144 5.142,-0.199 7.422,-1.225c0.301,-0.139 0.598,-0.281 0.892,-0.434c0.169,-0.088 0.31,-0.212 0.477,-0.303c0.393,-0.228 0.782,-0.481 1.161,-0.735c9.026,-5.959 13.71,-20.1 10.328,-36.334c0.004,-0.002 0.002,-0.006 0.008,-0.009c-0.01,-0.055 -0.028,-0.115 -0.044,-0.171c-0.255,-1.188 -0.574,-2.389 -0.91,-3.595c-0.016,-0.042 -0.02,-0.085 -0.032,-0.123c-2.043,-7.2 -5.62,-14.691 -11.16,-21.97c-0.246,-0.316 -0.483,-0.606 -0.722,-0.921l-0.004,0.002c-0.667,-0.859 -1.331,-1.664 -1.994,-2.491c0.01,-0.006 0.018,-0.01 0.033,-0.017c-0.791,-0.992 -1.571,-1.955 -2.355,-2.909l-0.004,0.002c-0.105,-0.126 -0.205,-0.263 -0.311,-0.386c-1.473,1.039 -2.959,2.075 -4.46,3.11c0.265,0.33 0.533,0.678 0.799,1.003c-1.903,2.924 -2.317,6.573 -0.696,9.687c1.54,2.96 0.172,6.732 -3.046,8.404c-5.203,2.703 -7.415,8.798 -4.929,13.586c1.539,2.958 0.171,6.73 -3.047,8.402c-4.39,2.28 -6.608,6.974 -5.715,11.262c-1.419,-1.568 -2.764,-3.265 -4.05,-5.109c0.275,-2.011 1.463,-3.936 3.502,-4.996c5.207,-2.705 7.415,-8.803 4.927,-13.585c-1.539,-2.958 -0.167,-6.727 3.049,-8.403c5.203,-2.702 7.412,-8.798 4.927,-13.584c-0.573,-1.1 -0.621,-2.298 -0.449,-3.469c-1.322,0.883 -2.653,1.759 -3.999,2.646c0.153,0.917 0.397,1.832 0.845,2.694c1.538,2.956 0.169,6.726 -3.047,8.402c-5.2,2.702 -7.419,8.8 -4.929,13.586c1.539,2.956 0.176,6.728 -3.047,8.402c-1.902,0.988 -3.382,2.429 -4.396,4.096c-3.691,-6.601 -6.27,-14.424 -6.482,-23.151c-0.005,-0.396 -0.029,-0.732 -0.044,-1.128c-1.716,0.995 -3.44,1.972 -5.174,2.943c0.578,11.517 4.895,21.942 10.871,30.039c0.021,0.01 0.021,0.027 0.028,0.04Zm36.391,-33.902c0.736,1.515 1.389,3.036 1.984,4.561c-0.403,0.345 -0.758,0.726 -1.248,0.98c-5.202,2.703 -7.419,8.8 -4.928,13.586c1.539,2.958 0.175,6.728 -3.047,8.402c-5.207,2.705 -7.416,8.801 -4.926,13.587c0.7,1.345 0.726,2.852 0.327,4.262c-1.351,-0.247 -2.766,-0.707 -4.223,-1.312c0.702,-2.302 0.67,-4.768 -0.481,-6.979c-1.538,-2.956 -0.17,-6.728 3.046,-8.404c5.203,-2.703 7.417,-8.799 4.927,-13.585c-1.539,-2.958 -0.174,-6.729 3.049,-8.403c2.833,-1.478 4.736,-3.965 5.52,-6.695Zm-0.615,41.279c-1.447,-2.946 -0.103,-6.634 3.076,-8.285c0.66,-0.343 1.264,-0.739 1.818,-1.175c-0.013,0.064 -0.019,0.128 -0.033,0.192c-1.056,3.814 -2.757,6.912 -4.861,9.268Zm4.402,-19.999c1.539,2.958 0.169,6.726 -3.047,8.401c-5.2,2.702 -7.414,8.805 -4.925,13.587c0.137,0.265 0.175,0.548 0.266,0.824c-0.237,0.141 -0.439,0.351 -0.677,0.475c-0.198,0.102 -0.397,0.201 -0.599,0.294c-0.801,0.359 -1.702,0.565 -2.646,0.678c0.477,-2.104 0.318,-4.312 -0.719,-6.306c-1.539,-2.958 -0.176,-6.729 3.046,-8.403c5.207,-2.705 7.415,-8.803 4.927,-13.585c-1.54,-2.958 -0.167,-6.726 3.049,-8.403c0.29,-0.151 0.531,-0.339 0.797,-0.506c0.366,1.186 0.711,2.361 0.983,3.545c-1.726,2.88 -2.018,6.395 -0.455,9.399Zm-28.312,13.649c-1.539,-2.958 -0.172,-6.732 3.046,-8.404c5.203,-2.703 7.413,-8.797 4.927,-13.585c-1.539,-2.958 -0.169,-6.731 3.049,-8.403c5.203,-2.702 7.414,-8.804 4.926,-13.586c-0.747,-1.435 -0.779,-3.058 -0.279,-4.547c0.672,0.834 1.342,1.615 2.005,2.492c0.635,0.828 1.167,1.697 1.758,2.54c0.078,1.21 0.306,2.41 0.893,3.539c1.54,2.96 0.176,6.729 -3.046,8.403c-5.207,2.705 -7.417,8.804 -4.929,13.586c1.539,2.958 0.169,6.726 -3.047,8.402c-5.203,2.703 -7.41,8.798 -4.926,13.587c0.544,1.045 0.615,2.175 0.462,3.282c-1.299,-0.775 -2.597,-1.657 -3.893,-2.683c0.081,-1.572 -0.182,-3.157 -0.946,-4.623Z" style="fill:#fff;fill-rule:nonzero;"/></svg>