<?xml version="1.0" encoding="UTF-8" standalone="no"?><!DOCTYPE svg PUBLIC "-//W3C//DTD SVG 1.1//EN" "http://www.w3.org/Graphics/SVG/1.1/DTD/svg11.dtd"><svg width="100%" height="100%" viewBox="0 0 1204 471" version="1.1" xmlns="http://www.w3.org/2000/svg" xmlns:xlink="http://www.w3.org/1999/xlink" xml:space="preserve" style="fill-rule:evenodd;clip-rule:evenodd;stroke-linejoin:round;stroke-miterlimit:1.41421;"><rect id="Artboard1" x="0" y="0" width="1203.04" height="470.278" style="fill:none;"/><g><path d="M61.461,89.155l0,347.975c0,2.08 -0.512,4.1 -1.52,5.9c-1.846,3.305 -5.721,7.638 -13.259,7.638c-12.162,0 -19.975,-7.388 -19.975,-17.388l0,-395.87c0,-7.3 4.142,-14.15 10.859,-17.017c4.112,-1.758 9.279,-2.142 15.245,1.125c1.655,0.892 2.988,2.267 3.996,3.846l262.75,414.871c0,0 -2.604,13.037 -19.112,11.295c-6.084,-0.862 -11.296,-0.862 -37.371,-46.929c-26.067,-46.05 -201.613,-315.446 -201.613,-315.446" style="fill:#fff;fill-rule:nonzero;"/><path d="M321.298,379.408c0,0 -31.712,3.262 -34.754,-25.2c-2.313,-21.658 -0.338,-283.179 -0.046,-320.583c0.029,-4.067 2.254,-7.888 5.913,-9.717c2.779,-1.404 6.762,-2.533 12.383,-2.533c8.279,0 12.2,2.737 14.029,5.137c1.088,1.408 1.613,3.15 1.613,4.917c0.058,23.679 0.862,347.146 0.862,347.979" style="fill:#fff;fill-rule:nonzero;"/><path d="M884.132,320.892c-17.384,-34.184 -40.55,-130.359 23.75,-212.613c48.216,-61.683 117.116,-65.808 155.896,-60.704c1.845,0.558 3.937,1.1 6.32,1.612c23.721,4.988 38.855,13.171 47.78,19.667c3.35,2.633 38.912,30.554 39.7,31.3c5.795,5.521 10.729,2.621 10.729,2.621c0,0 5.5,-5.517 11.575,-11.296c2.779,-2.65 3.071,-5.475 2.591,-7.754c-13.262,-15.163 -25.52,-24.483 -32.079,-28.992c-15.646,-13.333 -31.258,-21.762 -43.754,-27.012c-0.5,-0.25 -0.954,-0.425 -1.304,-0.529c-14.733,-6.03 -24.804,-7.567 -24.804,-7.567c0,0 -0.525,0.208 -1.421,0.558c-51.567,-10.2 -94.75,2.342 -94.75,2.342c-121.083,28.975 -147.158,168.008 -147.158,168.008c-17.371,150.059 67.212,216.1 86.908,229.429c19.7,13.321 18.542,5.209 24.908,-4.05c6.379,-9.279 4.638,-14.491 4.638,-14.491c-20.867,-11.588 -52.142,-46.346 -69.525,-80.529" style="fill:#fff;fill-rule:nonzero;"/><path d="M1170.11,366.587c-2.954,-2.734 -5.692,-2.559 -7.742,-1.65c-61.125,70.958 -141.508,58.354 -172.166,55.329c-0.996,0.571 -1.859,1.404 -2.079,2.591c-0.542,2.971 -4.113,20.588 -2.221,25.971c56.879,16.042 101.104,0.471 101.104,0.471c38.225,-9.146 66.962,-29.271 88.429,-52.508c3.15,-3.338 3.646,-4.579 5.608,-7.096c6.088,-7.829 -4.845,-17.458 -10.933,-23.108" style="fill:#fff;fill-rule:nonzero;"/><path d="M649.128,26.197c-61.229,-21.425 -117.817,-3.67 -117.817,-3.67c-116.895,27.966 -145.241,158.529 -147.054,167.525c-0.058,0.325 -0.104,0.645 -0.146,0.966c-17.154,149.704 67.271,215.634 86.955,228.946c4.066,2.75 7.958,4.975 11.633,6.717c2.237,1.071 4.917,0.175 6.158,-1.971l10.638,-18.425c1.304,-2.271 0.529,-5.142 -1.696,-6.529l-0.013,0c-20.783,-12.996 -50.091,-46.2 -66.704,-78.859c-17.383,-34.191 -40.55,-130.362 23.754,-212.616c58.475,-74.809 148.05,-67.463 183.434,-55.229c4.916,1.7 10.333,-0.367 12.921,-4.859l3.658,-6.321c3.383,-5.866 0.675,-13.433 -5.721,-15.675" style="fill:#fff;fill-rule:nonzero;"/><path d="M696.51,54.162l-0.129,-0.088c-5.43,-3.671 -12.85,-1.975 -16.13,3.717l-7.287,12.6c-1.375,2.416 -0.758,5.504 1.508,7.125c19.871,14.283 44.342,43.171 59.721,73.421c17.371,34.183 41.383,131.204 -24.437,212.25c-65.18,80.233 -156.934,58.254 -179.6,53.658c-2.9,-0.583 -5.842,0.746 -7.334,3.308l-5.446,15.075c-1.958,3.425 -0.366,7.813 3.35,9.1c52.159,18.013 109.888,6.088 113.05,5.034c0.146,-0.046 0.263,-0.084 0.396,-0.117c118.138,-28.417 145.692,-161.646 146.909,-167.746c0.012,-0.146 0.041,-0.292 0.058,-0.437c17.279,-149.896 -64.946,-213.584 -84.629,-226.9" style="fill:#fff;fill-rule:nonzero;"/></g></svg>